<?xml version="1.0" standalone="no"?>
<!DOCTYPE svg PUBLIC "-//W3C//DTD SVG 20010904//EN"
 "http://www.w3.org/TR/2001/REC-SVG-20010904/DTD/svg10.dtd">
<svg version="1.0" xmlns="http://www.w3.org/2000/svg"
 width="423.000000pt" height="423.000000pt" viewBox="0 0 423.000000 423.000000"
 preserveAspectRatio="xMidYMid meet">
<metadata>
Created by potrace 1.16, written by Peter Selinger 2001-2019
</metadata>
<g transform="translate(0.000000,423.000000) scale(0.100000,-0.100000)"
fill="#000000" stroke="none">
<path d="M0 2115 l0 -2115 2115 0 2115 0 0 110 0 110 -122 2 c-68 2 -211 3
-318 3 -172 0 -195 2 -198 16 -2 12 9 21 40 30 50 16 69 52 52 97 -6 16 -176
312 -377 659 -202 348 -367 636 -367 641 0 5 30 22 68 37 315 131 566 355 702
630 80 162 95 230 95 425 -1 194 -18 278 -90 427 -173 357 -528 576 -970 600
-261 13 -644 -50 -921 -152 -936 -345 -1554 -1176 -1554 -2089 0 -169 17 -280
66 -425 149 -447 499 -778 896 -847 483 -84 989 268 1186 826 48 138 66 239
66 390 1 116 -2 145 -22 204 -63 187 -177 327 -322 395 -49 22 -71 26 -192 29
l-138 4 0 -624 0 -625 23 -34 c30 -45 83 -79 122 -79 39 0 68 -20 56 -38 -7
-11 -35 -11 -165 2 -140 14 -172 14 -307 1 -82 -9 -154 -13 -160 -10 -27 17 0
45 43 45 35 0 95 41 117 80 21 37 21 44 21 724 l0 686 250 0 c189 0 270 -4
328 -16 156 -32 285 -105 397 -226 75 -81 119 -154 159 -265 30 -85 31 -94 31
-248 0 -116 -5 -183 -18 -243 -60 -275 -181 -497 -376 -693 -200 -199 -415
-314 -702 -376 -117 -25 -391 -25 -507 0 -334 73 -616 252 -815 515 -213 284
-305 609 -277 984 40 548 231 1036 567 1453 102 127 330 348 454 442 348 261
761 434 1194 499 168 25 476 26 598 1 569 -116 1003 -550 1103 -1105 23 -130
21 -341 -6 -475 -77 -395 -305 -712 -669 -934 -6 -4 676 -1169 713 -1220 42
-56 76 -72 169 -75 l77 -3 0 1982 0 1983 -2115 0 -2115 0 0 -2115z"/>
</g>
</svg>
